<?xml version="1.0" encoding="UTF-8"?>
<svg id="Capa_2" data-name="Capa 2" xmlns="http://www.w3.org/2000/svg" viewBox="0 0 352.64 82.63">
  <defs>
    <style>
      .cls-1 {
        fill: #fff;
        stroke-width: 0px;
      }
    </style>
  </defs>
  <g id="Capa_1-2" data-name="Capa 1">
    <g id="droppi_logo" data-name="droppi logo">
      <g>
        <g id="Capa_3_copia" data-name="Capa 3 copia">
          <g>
            <g>
              <path class="cls-1" d="M16.89,55.69C6.63,55.69,0,47.35,0,34.48S6.23,14.17,15.88,14.17c4.83,0,8.54,2.01,11.36,6.03l2.21,3.02V0h8.44v54.58h-8.24l-.1-7.94-2.11,3.42c-2.21,3.82-5.73,5.63-10.56,5.63ZM19.6,21.21c-7.14,0-10.66,4.72-10.66,14.07,0,8.14,4.32,13.87,10.56,13.87s10.56-5.43,10.56-13.17c-.1-12.16-5.73-14.78-10.45-14.78Z"/>
              <path class="cls-1" d="M49.76,54.58V15.28h7.94v7.84l2.21-3.42c3.32-5.13,7.14-5.53,11.36-5.53h.2v8.75c-.6-.1-1.21-.1-1.91-.1-7.34,0-11.26,3.92-11.26,11.26v20.51h-8.54Z"/>
              <path class="cls-1" d="M95.9,55.69c-12.16,0-20.21-8.34-20.21-20.81s7.74-20.81,20.21-20.81,20,7.94,20,20.81c0,12.87-7.64,20.81-20,20.81ZM95.9,21.11c-5.13,0-11.26,2.41-11.26,13.87s6.13,13.87,11.26,13.87,11.26-2.41,11.26-13.87-6.13-13.87-11.26-13.87Z"/>
              <path class="cls-1" d="M124.45,74.39V15.28h8.24l.1,7.94,2.11-3.42c2.31-3.82,5.83-5.63,10.56-5.63,10.25,0,16.89,8.34,16.89,21.21s-6.23,20.31-15.88,20.31c-4.83,0-8.54-2.01-11.36-6.03l-2.21-3.02v27.74h-8.44ZM142.95,20.81c-6.23,0-10.56,5.43-10.56,13.17,0,12.16,5.63,14.78,10.45,14.78,7.14,0,10.66-4.72,10.66-14.07.1-8.24-4.32-13.87-10.56-13.87Z"/>
              <path class="cls-1" d="M334.75,55.69c-11.46,0-17.99-7.74-17.99-21.31s6.33-20.31,18.3-20.31c9.85,0,16.49,5.23,17.59,13.67h-8.75c-1.01-4.22-4.42-6.84-8.85-6.84-3.62,0-9.65,1.71-9.65,13.27,0,10.86,5.03,14.68,9.35,14.68,4.83,0,8.34-2.71,9.15-6.94h8.65c-1.61,8.34-8.54,13.77-17.79,13.77Z"/>
            </g>
            <g>
              <path class="cls-1" d="M250.31,73.58c-11.46,0-14.58-9.25-15.48-14.88v-14.37h3.32v-12.87h4.83v21.61h0c.2,8.95,4.22,10.86,7.54,10.86s7.14-1.71,7.54-9.75h7.94c-.1,9.35-4.22,19.4-15.68,19.4Z"/>
              <rect class="cls-1" x="217.13" y="14.58" width="11.16" height="5.83"/>
              <polygon class="cls-1" points="213.41 54.38 213.41 44.13 216.63 44.13 216.63 31.36 228.29 31.36 228.29 41.82 221.45 41.82 221.45 54.38 213.41 54.38"/>
              <polygon class="cls-1" points="245.28 29.05 245.28 20.91 244.17 20.91 236.63 20.91 236.63 0 244.47 0 244.47 15.28 263.78 15.28 263.78 20.91 251.11 20.91 251.11 29.05 245.28 29.05"/>
            </g>
          </g>
        </g>
        <path class="cls-1" d="M171.49,82.53V15.28h8.24l.1,7.94,2.11-3.42c2.31-3.82,5.83-5.63,10.56-5.63h1.41c.2,0,.5,0,.7.1h.3c.3,0,.5.1.7.1.1,0,.2,0,.3.1.3.1.6.1.9.2h.2c.3.1.5.2.8.2l.3.1c.2.1.4.2.6.2l.3.1c.1.1.3.1.5.2l.4.2c.6.3,1.11.6,1.61,1.01l.3.2c.2.1.3.2.5.4l.2.2c.1.1.3.3.5.5l.2.1c.5.5,1.01,1.01,1.41,1.51l.1.2c.2.2.3.4.5.7l.1.2c.2.2.3.4.5.7q.1.1.1.2c0,.1.1.1.1.2l-6.63,6.13c-1.51-4.12-4.52-6.74-8.34-7.14-.4,0-.7-.1-1.21-.1-6.13,0-10.56,5.53-10.56,13.17,0,1.21.1,2.41.2,3.52.9,8.65,5.43,10.86,9.05,11.16.4,0,.8.1,1.21.1h.5c6.74-.2,10.15-4.93,10.15-14.07,0-1.11-.1-2.21-.2-3.22h6.84v10.35h-4.12v10.56c-.2.2-.4.3-.5.4l-.1.1c-.3.2-.6.5-1.01.7l-.1.1c-.3.2-.6.4-1.01.6h-.1c-.3.2-.7.3-1.11.5l-.2.1c-.3.1-.7.2-1.11.4h-.1c-.4.1-.8.2-1.11.3h-.1c-.5.1-.9.1-1.31.2h-.2c-.5,0-1.01.1-1.41.1-.6,0-1.21,0-1.81-.1-3.92-.4-7.14-2.31-9.65-5.93l-2.21-3.02v35.89h-8.34v-.1Z"/>
        <path class="cls-1" d="M289.21,49.36c-6.03,0-10.15-4.52-10.56-11.46h0l-.1-1.31h28.85c-.3-14.88-6.53-22.42-18.4-22.42s-19,7.44-19,20c0,14.48,6.43,21.51,19.7,21.51,7.94,0,13.97-4.02,16.69-11.06h-8.85c-1.21,2.92-4.42,4.72-8.34,4.72ZM279.06,30.76c.4-6.03,4.42-10.25,9.65-10.25,4.72,0,9.55,3.22,9.75,10.35v1.21h-19.5l.1-1.31Z"/>
      </g>
    </g>
  </g>
</svg>